<svg height="512" viewBox="0 0 512 512" width="512" xmlns="http://www.w3.org/2000/svg"><g id="Filled_outline" data-name="Filled outline"><path d="m448 401.97v94.03h-384v-94.03a64 64 0 0 1 48.48-62.09l79.52-19.88a28.939 28.939 0 0 0 16-25.89v-54.11h96v54.11a28.939 28.939 0 0 0 16 25.89l79.52 19.88a64 64 0 0 1 48.48 62.09z" fill="#fdc8a2"/><path d="m304 240v50.67l-6.4 8.53c-.51.68-1.04 1.33-1.6 1.96a31.992 31.992 0 0 1 -24 10.84h-32a31.992 31.992 0 0 1 -24-10.84c-.56-.63-1.09-1.28-1.6-1.96l-6.4-8.53v-50.67z" fill="#fdbf92"/><path d="m436.86 365.89a64.1 64.1 0 0 0 -37.34-26.01l-79.52-19.88c-11.56 28.88-37.78 43.33-64 43.33s-52.44-14.45-64-43.33l-79.52 19.88a64 64 0 0 0 -48.48 62.09v94.03h384v-94.03a63.812 63.812 0 0 0 -11.14-36.08z" fill="#e9d6bb"/><path d="m336 120v93.33a32.017 32.017 0 0 1 -6.4 19.2l-32 42.67c-.51.68-1.04 1.33-1.6 1.96a31.992 31.992 0 0 1 -24 10.84h-32a31.992 31.992 0 0 1 -24-10.84c-.56-.63-1.09-1.28-1.6-1.96l-32-42.67a32.017 32.017 0 0 1 -6.4-19.2v-93.33c0-44.18 35.82-72 80-72 22.09 0 42.09 6.96 56.57 19.43s23.43 30.48 23.43 52.57z" fill="#fdc8a2"/><path d="m214 168a14 14 0 1 1 14-14 14.015 14.015 0 0 1 -14 14z" fill="#91563a"/><path d="m298 168a14 14 0 1 1 14-14 14.015 14.015 0 0 1 -14 14z" fill="#91563a"/><path d="m172 184h4v-56h-4a28 28 0 0 0 -28 28 28 28 0 0 0 28 28z" fill="#fdb683"/><path d="m340 128h-4v56h4a28 28 0 0 0 28-28 28 28 0 0 0 -28-28z" fill="#fdb683"/><path d="m304 64 32 64v-56a32 32 0 0 0 -32-32z" fill="#2b4266"/><path d="m176 128v-64h32z" fill="#2b4266"/><path d="m304 40v24h-128a39.875 39.875 0 0 1 11.72-28.28 40.63 40.63 0 0 1 6.04-4.97 39.662 39.662 0 0 1 14.81-6.06 40.424 40.424 0 0 1 7.43-.69h62.11a28.939 28.939 0 0 1 25.89 16z" fill="#34507b"/><path d="m440 432h16v64h-16z"/><path d="m401.46 332.119-78.6-19.65a20.927 20.927 0 0 1 -10.86-18.359v-24.777l24-32.006a40.284 40.284 0 0 0 8-24v-21.555a35.994 35.994 0 0 0 0-71.544v-48.228a40.051 40.051 0 0 0 -35.264-39.71 36.7 36.7 0 0 0 -30.625-16.29h-62.111c-13.667 0-25.582 7.18-25.582 7.18l3.17 6.331 10.596 26.489h-19.184a31.716 31.716 0 0 1 5.4-11.2l-12.8-9.61a47.6 47.6 0 0 0 -9.6 28.81v56.228a35.994 35.994 0 0 0 0 71.544v21.558a40.289 40.289 0 0 0 8 24l24 32v24.78a20.817 20.817 0 0 1 -10.859 18.359l-78.6 19.649a71.9 71.9 0 0 0 -54.541 69.852v94.03h16v-94.03a55.9 55.9 0 0 1 8.683-29.97l25.66 25.659 11.314-11.314-26.532-26.535a55.914 55.914 0 0 1 23.3-12.169l73.05-18.263c13.104 26.047 38.769 41.952 68.525 41.952s55.421-15.9 68.529-41.952l73.051 18.264a55.9 55.9 0 0 1 23.3 12.168l-26.532 26.533 11.314 11.314 25.655-25.657a55.9 55.9 0 0 1 8.683 29.97v13.03h16v-13.03a71.893 71.893 0 0 0 -54.54-69.851zm-41.46-176.119a20.038 20.038 0 0 1 -16 19.6v-39.2a20.038 20.038 0 0 1 16 19.6zm-32-84v22.111l-16-32v-12.74a24.042 24.042 0 0 1 16 22.629zm-32-29.952v13.952h-10.584l-9.6-24s12.934-.5 20.184 10.048zm-42.584 13.952-9.6-24h14.768l9.6 24zm-26.832-24 9.6 24h-14.768l-9.494-23.735c1.344-.165 14.662-.265 14.662-.265zm-31.528 40-11.056 22.111v-22.111zm-43.056 84a20.038 20.038 0 0 1 16-19.6v39.2a20.038 20.038 0 0 1 -16-19.6zm32 57.33v-83.441l28.944-57.889h86.112l28.944 57.889v83.441a24.171 24.171 0 0 1 -4.8 14.4s-32.768 43.654-33.2 44.143a23.982 23.982 0 0 1 -18 8.127h-32a24 24 0 0 1 -18.02-8.153c-.411-.463-33.177-44.114-33.177-44.114a24.175 24.175 0 0 1 -4.803-14.403zm72 142c-18.474 0-41.565-8.645-53.847-32.365a36.71 36.71 0 0 0 13.847-28.855v-6.121a39.987 39.987 0 0 0 24 8.011h32a40.009 40.009 0 0 0 24-8.007v6.117a36.895 36.895 0 0 0 13.856 28.838c-12.28 23.732-35.378 32.382-53.856 32.382z"/><path d="m256 392c-34.825 0-48.8-19.654-49.38-20.491l-13.276 8.929c.75 1.125 18.878 27.562 62.656 27.562s61.906-26.437 62.656-27.562l-13.312-8.876c-.137.205-14.033 20.438-49.344 20.438z"/><path d="m120 449.715c-9.942-10.076-14.877-27.478-16.1-34.99l-15.8 2.539c.273 1.713 6.61 39.508 31.9 52.107v26.629h16v-88h-16z"/><path d="m392 449.715v-41.715h-16v88h16v-26.629c25.289-12.6 31.626-50.394 31.9-52.107l-15.8-2.539c-1.223 7.512-6.158 24.914-16.1 34.99z"/><path d="m228 154a14 14 0 1 0 -14 14 14.015 14.015 0 0 0 14-14z"/><path d="m298 168a14 14 0 1 0 -14-14 14.015 14.015 0 0 0 14 14z"/><path d="m248 160h16v32h-16z"/><path d="m282.869 223.468-5.738-14.936c-.182.071-18.4 6.971-36.284 5.07l-1.694 15.91a76.468 76.468 0 0 0 8.1.417 110.331 110.331 0 0 0 35.616-6.461z"/></g></svg>