<?xml version="1.0" encoding="iso-8859-1"?>
<!-- Generator: Adobe Illustrator 19.0.0, SVG Export Plug-In . SVG Version: 6.00 Build 0)  -->
<svg version="1.1" id="Layer_1" xmlns="http://www.w3.org/2000/svg" xmlns:xlink="http://www.w3.org/1999/xlink" x="0px" y="0px"
	 viewBox="0 0 512 512" style="enable-background:new 0 0 512 512;" xml:space="preserve">
<path style="fill:#F7CBA4;" d="M321.982,315.247c35.078,6.83,61.56,37.738,61.56,74.817v113.578H128.673V390.064
	c0-37.079,26.482-67.987,61.56-74.817"/>
<path style="fill:#9691C6;" d="M332.679,430.982v72.66H179.534v-72.66c24.514-19.037,38.856-48.336,38.856-79.378v-36.352h75.443
	v36.352C293.834,382.646,308.165,411.945,332.679,430.982z"/>
<g>
	<path style="fill:#E0B394;" d="M222.65,315.247h-32.418c-35.078,6.83-61.56,37.738-61.56,74.817v113.578h32.418V390.064
		C161.09,352.985,187.572,322.077,222.65,315.247z"/>
	<path style="fill:#E0B394;" d="M217.78,362.592c0,0,53.556,16.779,76.058,0.436l0.592-0.436V302.43l-76.051,24.527L217.78,362.592z
		"/>
	<path style="fill:#E0B394;" d="M138.266,222.962c-13.861-0.615-24.894-12.05-24.894-26.057c0-14.398,11.67-26.079,26.079-26.079
		c1.297,0,2.571,0.089,3.823,0.279"/>
	<path style="fill:#E0B394;" d="M373.93,222.962c13.861-0.615,24.906-12.05,24.906-26.057c0-14.398-11.681-26.079-26.09-26.079
		c-1.297,0-2.582,0.101-3.823,0.279"/>
</g>
<path style="fill:#F7CBA4;" d="M218.375,335.69l-45.886-33.339c-24.248-17.617-37.366-46.751-34.483-76.585l7.959-82.361
	c5.482-56.725,53.15-100.009,110.139-100.009l0,0c56.989,0,104.657,43.284,110.139,100.009l7.959,82.361
	c2.883,29.834-10.234,58.966-34.483,76.585l-45.886,33.339C271.335,352.035,240.872,352.035,218.375,335.69z"/>
<path style="fill:#E0B394;" d="M166.561,241.999c-0.771,13.045,3.477,25.878,11.883,35.883l47.959,58.933
	c2.504,2.985,5.343,5.489,8.417,7.49c-5.768-2.012-11.313-4.896-16.444-8.619l-45.888-33.334
	c-24.246-17.617-37.358-46.748-34.474-76.584l7.948-82.363c5.433-56.172,52.226-99.164,108.487-99.98
	c-34.653,0.838-73.893,33.502-75.939,68.289L166.561,241.999z"/>
<path style="fill:#666666;" d="M426.639,240.512c-3.622,21.82-21.932,38.655-43.976,40.522c-7.3,0.615-14.308-0.38-20.691-2.683
	c9.569-15.482,14.04-33.882,12.229-52.572l-7.959-82.352c-1.33-13.749-5.131-26.705-10.955-38.454
	c-7.624,20.535-27.398,35.167-50.583,35.167c-21.396,0-39.885-12.464-48.604-30.528c-8.719,18.064-27.208,30.528-48.604,30.528
	c-9.256,0-17.975-2.336-25.587-6.45v-0.011c-11.458-6.17-20.412-16.376-24.995-28.706c-5.824,11.749-9.625,24.704-10.955,38.454
	L138,225.779c-1.811,18.69,2.66,37.09,12.229,52.572c-6.383,2.303-13.392,3.298-20.691,2.683
	c-22.044-1.867-40.354-18.702-43.976-40.522c-2.638-15.862,2.694-30.584,12.352-41.07c13.045-14.152,20.658-32.451,20.658-51.689
	v-1.934c0-64.153,44.054-118.044,103.546-133.169c10.854-2.761,22.234-4.237,33.949-4.237h0.067
	c75.879,0.022,137.495,61.537,137.495,137.406v1.934c0,19.238,7.613,37.537,20.658,51.689
	C423.945,209.928,429.277,224.65,426.639,240.512z"/>
<path style="fill:#4D4D4D;" d="M181.909,133.68c-11.458-6.171-20.412-16.376-24.995-28.706
	c-5.824,11.749-9.625,24.704-10.955,38.454L138,225.779c-1.811,18.69,2.66,37.09,12.229,52.572
	c-6.383,2.303-13.392,3.298-20.691,2.683c-22.044-1.867-40.354-18.702-43.976-40.522c-2.638-15.862,2.694-30.584,12.352-41.07
	c13.045-14.152,20.658-32.451,20.658-51.689v-1.934c0-64.153,44.054-118.044,103.546-133.169
	C220.955,13.612,151.38,71.651,181.909,133.68z"/>
<path d="M206.245,202.106c-4.631,0-8.384,3.754-8.384,8.384v13.41c0,4.63,3.753,8.384,8.384,8.384s8.384-3.754,8.384-8.384v-13.41
	C214.629,205.86,210.875,202.106,206.245,202.106z"/>
<path d="M305.772,161.75c-9.479,0-18.393,3.691-25.096,10.395c-3.275,3.274-3.275,8.583-0.001,11.857
	c3.274,3.273,8.583,3.274,11.856,0c3.537-3.537,8.24-5.484,13.241-5.484c5.002,0,9.704,1.947,13.24,5.484
	c1.638,1.638,3.783,2.456,5.929,2.456c2.145,0,4.291-0.818,5.928-2.456c3.275-3.274,3.275-8.583,0.001-11.857
	C324.165,165.441,315.252,161.75,305.772,161.75z"/>
<path d="M231.342,172.145c-6.704-6.704-15.616-10.395-25.097-10.395c-9.479,0-18.392,3.691-25.096,10.395
	c-3.274,3.274-3.274,8.583,0.001,11.857c3.273,3.274,8.582,3.273,11.856,0c3.536-3.537,8.237-5.484,13.239-5.484
	c5.002,0,9.704,1.947,13.24,5.484c1.638,1.638,3.783,2.456,5.929,2.456c2.145,0,4.291-0.818,5.928-2.456
	C234.616,180.728,234.616,175.419,231.342,172.145z"/>
<path d="M305.772,202.106c-4.631,0-8.384,3.754-8.384,8.384v13.41c0,4.63,3.753,8.384,8.384,8.384c4.631,0,8.384-3.754,8.384-8.384
	v-13.41C314.155,205.86,310.402,202.106,305.772,202.106z"/>
<path d="M271.817,278.061c-8.716,8.717-22.9,8.717-31.616,0c-3.275-3.274-8.583-3.274-11.857,0s-3.274,8.582,0,11.856
	c7.39,7.39,17.215,11.459,27.666,11.459s20.275-4.07,27.666-11.459c3.274-3.274,3.274-8.582,0-11.856
	C280.4,274.787,275.091,274.787,271.817,278.061z"/>
<path d="M247.625,253.527h16.768c4.631,0,8.384-3.754,8.384-8.384v-33.535c0-4.63-3.753-8.384-8.384-8.384
	c-4.631,0-8.384,3.754-8.384,8.384v25.152h-8.384c-4.631,0-8.384,3.754-8.384,8.384
	C239.241,249.774,242.995,253.527,247.625,253.527z"/>
<path d="M420.352,193.73c-11.891-12.899-18.438-29.237-18.438-46.007v-1.934c0-35.682-13.05-70.025-36.744-96.704
	c-3.072-3.461-8.37-3.776-11.836-0.701c-3.462,3.074-3.776,8.374-0.701,11.836c20.966,23.608,32.513,53.996,32.513,85.57v1.934
	c0,20.993,8.125,41.368,22.874,57.369c8.563,9.296,12.297,21.694,10.248,34.017c-2.97,17.899-18.283,32.005-36.409,33.54
	c-2.526,0.212-5.025,0.184-7.487-0.055c6.731-14.695,9.672-31.122,8.073-47.652l-7.958-82.363
	c-1.324-13.706-4.954-26.932-10.838-39.412l-0.927-1.9c-1.471-3.015-4.588-4.863-7.948-4.698c-3.35,0.165-6.28,2.312-7.447,5.456
	c-6.594,17.765-23.764,29.701-42.723,29.701c-17.377,0-33.492-10.122-41.054-25.789c-1.398-2.899-4.332-4.74-7.55-4.74
	c-3.218,0-6.152,1.841-7.55,4.74c-7.562,15.665-23.677,25.789-41.055,25.789c-18.958,0-36.127-11.936-42.723-29.701
	c-1.165-3.137-4.081-5.281-7.422-5.455c-3.37-0.179-6.465,1.654-7.949,4.651c-6.415,12.957-10.378,26.871-11.778,41.361
	l-7.958,82.359c-1.597,16.531,1.345,32.956,8.075,47.652c-2.465,0.24-4.965,0.269-7.495,0.057
	c-18.128-1.535-33.443-15.641-36.414-33.543c-2.049-12.322,1.687-24.719,10.247-34.012c14.752-16.004,22.877-36.379,22.877-57.371
	v-1.934c0-71.122,57.92-129,129.177-129.022c26.601,0.008,52.149,8.041,73.882,23.229c3.795,2.653,9.021,1.726,11.674-2.069
	s1.726-9.022-2.07-11.675C314.959,9.087,286.091,0.009,255.965,0c-80.437,0.023-145.877,65.424-145.877,145.789v1.934
	c0,16.769-6.547,33.108-18.44,46.009c-12.09,13.125-17.359,30.666-14.457,48.123c4.276,25.762,25.47,45.295,51.543,47.503
	c1.666,0.141,3.324,0.21,4.973,0.21c4.379,0,8.69-0.505,12.906-1.489c5.714,7.989,12.717,15.126,20.856,21.036l4.205,3.055
	c-30.636,13.041-51.481,43.46-51.481,77.868v113.578c0,4.63,3.753,8.384,8.384,8.384h254.869c4.631,0,8.384-3.754,8.384-8.384
	V390.039c0-34.408-20.846-64.827-51.482-77.868l4.206-3.055c8.135-5.91,15.133-13.044,20.846-21.032
	c4.211,0.981,8.519,1.486,12.894,1.486c1.65,0,3.31-0.07,4.975-0.21c26.07-2.208,47.264-21.742,51.538-47.499
	C437.713,224.4,432.444,206.86,420.352,193.73z M136.961,390.039c0-31.211,21.378-58.331,51.315-65.809l21.625,15.709v11.639
	c0,22.337-7.888,43.375-22.083,59.893v-20.549c0-4.63-3.753-8.384-8.384-8.384s-8.384,3.754-8.384,8.384v104.311h-34.089
	C136.961,495.232,136.961,390.039,136.961,390.039z M324.195,495.232H187.818v-60.283c18.349-15.387,30.853-35.945,36.085-58.794
	c10.117,5.011,21.103,7.526,32.097,7.526c10.991,0,21.981-2.515,32.111-7.526c5.233,22.848,17.736,43.406,36.085,58.793v60.284
	H324.195z M285.56,358.407c-18.11,11.326-40.988,11.325-59.105-0.012c0.139-2.259,0.214-4.532,0.214-6.817v-1.459
	c9.342,4.147,19.338,6.232,29.339,6.231c9.997,0,19.993-2.085,29.337-6.23v1.458C285.344,353.867,285.42,356.143,285.56,358.407z
	 M375.062,390.039v105.194h-34.1V390.922c0-4.63-3.753-8.384-8.384-8.384c-4.631,0-8.384,3.754-8.384,8.384v20.549
	c-14.195-16.518-22.083-37.556-22.083-59.893v-11.631l21.635-15.717C353.685,331.707,375.062,358.827,375.062,390.039z
	 M334.699,295.549l-45.886,33.334c-19.624,14.253-45.988,14.253-65.601,0l-45.889-33.335
	c-21.749-15.796-33.653-42.232-31.068-68.993l7.959-82.364c0.656-6.791,1.967-13.435,3.916-19.876
	c11.623,14.933,29.751,24.178,49.266,24.178c19.006,0,36.907-8.849,48.604-23.346c11.698,14.497,29.598,23.346,48.603,23.346
	c19.519,0,37.649-9.248,49.271-24.186c1.953,6.449,3.266,13.098,3.923,19.884l7.958,82.363
	C368.342,253.314,356.442,279.751,334.699,295.549z"/>
<g>
</g>
<g>
</g>
<g>
</g>
<g>
</g>
<g>
</g>
<g>
</g>
<g>
</g>
<g>
</g>
<g>
</g>
<g>
</g>
<g>
</g>
<g>
</g>
<g>
</g>
<g>
</g>
<g>
</g>
</svg>
