<svg height="480pt" viewBox="-16 0 480 480" width="480pt" xmlns="http://www.w3.org/2000/svg"><path d="m94.496094 7.199219v16.265625c-.027344 15.742187 2.144531 31.414062 6.445312 46.558594l9.441406 33.191406 72.046876-71.910156-12.214844-6.128907c-23.5-11.789062-49.425782-17.945312-75.71875-17.976562zm0 0" fill="#f7a116"/><path d="m306.695312 25.359375-12.265624 6.097656 71.90625 72.101563 9.558593-33.160156c4.34375-15.132813 6.558594-30.796876 6.582031-46.542969v-16.261719c-26.296874-.039062-52.242187 6.042969-75.78125 17.765625zm0 0" fill="#f7a116"/><path d="m114.101562 343.640625c-14.492187-1.789063-27.378906-10.082031-35.007812-22.53125s-9.171875-27.695313-4.191406-41.421875c4.730468-11.929688 3.785156-25.363281-2.566406-36.511719l-1.511719-2.519531c-35.347657 4.523438-62.066407 34.222656-62.84375 69.847656-.773438 35.628906 24.625 66.460938 59.742187 72.519532 35.113282 6.058593 69.378906-14.476563 80.585938-48.304688-9.839844 7.242188-22.082032 10.433594-34.207032 8.921875zm0 0" fill="#ee9200"/><path d="m389.910156 431.59375 13.960938-65.875c4.460937-21.046875-.8125-42.988281-14.34375-59.714844-13.535156-16.726562-33.890625-26.460937-55.410156-26.492187l-192-.265625c-21.515626-.027344-41.898438 9.648437-55.480469 26.339844-13.582031 16.691406-18.914063 38.617187-14.511719 59.679687l13.785156 65.933594h-8c-22.089844-.03125-40.023437 17.851562-40.054687 39.945312l96 .128907 208 .292968 96 .128906c.03125-22.089843-17.855469-40.023437-39.945313-40.054687zm0 0" fill="#f7a116"/><path d="m440.03125 472c0-22.089844-17.910156-40-40-40h-8l13.871094-65.886719c5.691406-26.957031-4.671875-54.78125-26.609375-71.449219-38.6875 101.703126-136.984375 152.328126-219.183594 177.335938zm0 0" fill="#f58f00"/><path d="m384.03125 184h32c0 22.089844-17.910156 40-40 40h-32c0-22.089844 17.90625-40 40-40zm0 0" fill="#348fd9"/><path d="m344.03125 224h32c22.089844 0 40 17.910156 40 40h-32c-22.09375 0-40-17.910156-40-40zm0 0" fill="#3086cd"/><path d="m344.03125 176h-208v32.097656l16 263.902344h64v-120h48v120h64l16-263.902344zm0 0" fill="#ffb531"/><path d="m344.03125 184h-208v24.097656c1.886719 32.601563 19.25 62.335938 46.71875 80 10.667969 6.832032 21.601562 13.230469 32.800781 19.199219.488281.253906.960938.542969 1.449219.800781l22.558594 11.902344 24-13.441406 25.792968-14.398438 3.199219-1.808594c29.90625-17.058593 49.246094-47.996093 51.480469-82.351562zm0 0" fill="#348fd9"/><path d="m344.03125 184h-208v24.097656c1.886719 32.601563 19.25 62.335938 46.71875 80 10.667969 6.832032 21.601562 13.230469 32.800781 19.199219.488281.253906.960938.542969 1.449219.800781l22.558594 11.902344 24-13.441406 25.792968-14.398438 3.199219-1.808594c29.90625-17.058593 49.246094-47.996093 51.480469-82.351562zm0 0" fill="#3086cd"/><path d="m276.832031 248h-73.601562c-7.269531 0-14.324219-2.472656-20-7.015625l-59.199219-47.382813c-7.585938-6.074218-12-15.261718-12-24.976562v-59.367188c0-8.492187 3.371094-16.632812 9.375-22.632812l45.25-45.25c6-6.003906 14.140625-9.375 22.628906-9.375h101.488282c8.488281 0 16.632812 3.371094 22.632812 9.375l45.25 45.25c6 6 9.375 14.140625 9.375 22.632812v59.367188c-.003906 9.714844-4.417969 18.902344-12 24.976562l-59.199219 47.375c-5.675781 4.546876-12.730469 7.023438-20 7.023438zm0 0" fill="#ffb531"/><path d="m308.03125 120c-25.058594.449219-47.210938 16.386719-55.601562 40h-24.800782c-8.390625-23.613281-30.542968-39.550781-55.597656-40-24.632812.414062-46.511719 15.828125-55.199219 38.878906-5.183593 13.089844-1.199219 28.027344 9.804688 36.800782l56.59375 45.304687c5.675781 4.542969 12.730469 7.015625 20 7.015625h73.601562c7.269531 0 14.324219-2.472656 20-7.015625l56.621094-45.296875c11.007813-8.773438 14.988281-23.710938 9.808594-36.800781-8.6875-23.066407-30.585938-38.484375-55.230469-38.886719zm0 0" fill="#ffd896"/><path d="m232.03125 128h16c8.835938 0 16 7.164062 16 16s-7.164062 16-16 16h-16c-8.835938 0-16-7.164062-16-16s7.164062-16 16-16zm0 0" fill="#2e3e51"/><path d="m264.03125 192c0 13.253906-10.746094 24-24 24s-24-10.746094-24-24l24-8zm0 0" fill="#e94f4f"/><path d="m200.03125 104c0 8.835938-7.164062 16-16 16s-16-7.164062-16-16 7.164062-16 16-16 16 7.164062 16 16zm0 0" fill="#2e3e51"/><path d="m312.03125 104c0 8.835938-7.164062 16-16 16s-16-7.164062-16-16 7.164062-16 16-16 16 7.164062 16 16zm0 0" fill="#2e3e51"/><path d="m176.03125 56h16v16h-16zm0 0" fill="#ffd896"/><path d="m288.03125 56h16v16h-16zm0 0" fill="#ffd896"/><path d="m289.375 163.558594-10.046875 15.089844c-1.8125 2.6875-5.054687 4.03125-8.234375 3.40625l-23.0625-4.613282v-17.441406h-16v17.441406l-23.066406 4.613282c-3.175782.636718-6.425782-.710938-8.222656-3.40625l-10.054688-15.089844-13.3125 8.882812 10.054688 15.078125c5.386718 8.105469 15.140624 12.148438 24.679687 10.222657l27.921875-5.597657 27.917969 5.597657c9.542969 1.945312 19.308593-2.097657 24.679687-10.222657l10.058594-15.078125zm0 0" fill="#2e3e51"/><path d="m401.878906 424 11.816406-56.296875c4.492188-21.332031.015626-43.574219-12.386718-61.503906-12.398438-17.929688-31.628906-29.96875-53.175782-33.296875l.976563-16.101563c9.035156 9.683594 21.679687 15.1875 34.921875 15.199219h32c4.417969 0 8-3.582031 8-8-.011719-16.097656-8.09375-31.117188-21.519531-40 13.425781-8.882812 21.507812-23.902344 21.519531-40 0-4.417969-3.582031-8-8-8h-32c-2.980469.007812-5.953125.292969-8.878906.855469.574218-2.707031.871094-5.46875.878906-8.238281v-59.359376c0-1.050781-.226562-2.050781-.304688-3.089843l9.472657-33.152344c4.535156-15.851563 6.832031-32.261719 6.832031-48.75v-16.265625c0-4.417969-3.582031-8-8-8-27.542969.03125-54.703125 6.445312-79.351562 18.734375l-11.050782 5.539063c-.984375-.066407-1.894531-.273438-2.855468-.273438h-101.488282c-.957031 0-1.871094.207031-2.816406.273438l-11.085938-5.539063c-24.648437-12.289063-51.808593-18.703125-79.351562-18.734375-4.417969 0-8 3.582031-8 8v16.265625c-.003906 16.488281 2.296875 32.898437 6.832031 48.75l9.472657 33.152344c-.082032 1.039062-.304688 2.039062-.304688 3.089843v59.359376c-.015625 12.144531 5.511719 23.628906 15.007812 31.199218l9.0625 7.246094 4 65.929688c-20.398437 3.097656-38.777343 14.058593-51.199218 30.535156-.105469-.589844-.351563-1.167969-.433594-1.757813-.929688-6.519531-.257812-13.167969 1.960938-19.371093 5.542968-14.171876 4.367187-30.089844-3.199219-43.292969l-1.519531-2.570313c-1.652344-2.71875-4.738282-4.222656-7.894532-3.855468-40.144531 5.152343-70.113281 39.472656-69.81249975 79.941406.29687475 40.46875 30.77343775 74.339844 70.98828175 78.898437h.375l6.816406 32.480469c-25.773438 1.027344-46.140625 22.207031-46.152344 48 0 4.417969 3.582031 8 8 8h400c4.417969 0 8-3.582031 8-8 .082031-25.828125-20.339844-47.066406-46.152344-48zm-145.769531 40h-32v-104.160156h32zm16-.160156v-112c0-4.417969-3.582031-8-8-8h-48c-4.417969 0-8 3.582031-8 8v112h-48.472656l-12.125-200.070313c5.527343 8.269531 12.160156 15.746094 19.71875 22.214844 3.746093 3.132813 7.683593 6.03125 11.785156 8.679687 11.429687 7.304688 22.65625 13.871094 33.78125 19.761719.386719.222657.800781.4375 1.027344.566407l22.550781 11.917968c2.402344 1.273438 5.285156 1.242188 7.65625-.085937l49.429688-27.753907c.800781-.40625 1.601562-.855468 2.402343-1.285156l1.144531-.640625c5.6875-3.195312 11.046876-6.949219 16-11.199219 7.554688-6.425781 14.1875-13.859374 19.710938-22.097656l-12.082031 200zm-64.078125-320.144532v.304688c.011719 9.53125 5.664062 18.148438 14.398438 21.960938 1.429687 1.289062 3.277343 2.015624 5.199218 2.039062h4.402344v9.441406l-23.066406 4.613282c-3.175782.636718-6.425782-.710938-8.222656-3.40625l-10.054688-15.089844-13.3125 8.882812 10.054688 15.078125c4.429687 6.679688 11.914062 10.699219 19.929687 10.695313.421875 0 .855469-.101563 1.277344-.125 2.265625 11.601562 10.742187 21.011718 22.046875 24.46875 11.304687 3.460937 23.59375.40625 31.960937-7.941406.386719-.359376.746094-.75 1.074219-1.160157 3.898438-4.304687 6.554688-9.585937 7.679688-15.28125 8.46875.472657 16.550781-3.585937 21.230468-10.65625l10.058594-15.078125-13.3125-8.882812-10.046875 15.089844c-1.8125 2.6875-5.054687 4.03125-8.234375 3.40625l-23.0625-4.613282v-9.441406h4.398438c1.878906-.03125 3.6875-.734375 5.097656-1.976562 8.796875-3.789063 14.496094-12.445313 14.503906-22.023438 0-.105469 0-.199219 0-.304688 9.347656-9.933593 22.359375-15.605468 36-15.695312 21.367188.378906 40.324219 13.804688 47.765625 33.839844 3.828125 9.835937.824219 21.015625-7.414063 27.609375l-7.777343 6.238281-48.800781 39.046875c-4.25 3.398437-9.53125 5.253906-14.972657 5.265625h-73.601562c-5.449219-.007812-10.734375-1.863281-14.992188-5.265625l-46.160156-36.917969-10.449219-8.390625c-8.226562-6.59375-11.21875-17.765625-7.390625-27.585937 7.445313-20.042969 26.414063-33.472656 47.792969-33.839844 13.640625.089844 26.648438 5.761719 36 15.695312zm32 48.464844 15.625 3.121094c-.585938 2.765625-1.894531 5.328125-3.792969 7.421875-.160156.175781-.386719.417969-.527343.601563-3.140626 3.003906-7.351563 4.628906-11.695313 4.515624-4.34375-.113281-8.460937-1.953124-11.441406-5.117187-1.898438-2.09375-3.207031-4.65625-3.792969-7.421875zm16-48.160156c0 4.417969-3.582031 8-8 8h-16c-4.417969 0-8-3.582031-8-8s3.582031-8 8-8h16c4.417969 0 8 3.582031 8 8zm77.519531 77.832031c-4.300781 20.261719-15.191406 38.523438-30.96875 51.945313-4.117187 3.550781-8.578125 6.679687-13.320312 9.34375l-1.359375.757812c-.527344.296875-1.054688.617188-1.953125 1.066406l-45.917969 25.789063-19.128906-10.117187c-.382813-.226563-.800782-.449219-1.023438-.570313-10.320312-5.453125-21.167968-11.808594-32.183594-18.847656-3.527343-2.273438-6.914062-4.765625-10.136718-7.457031-15.652344-13.417969-26.476563-31.597657-30.816406-51.75l31.527343 25.207031c7.089844 5.667969 15.886719 8.769531 24.960938 8.800781h73.601562c9.082031-.027344 17.886719-3.128906 24.984375-8.800781zm73.472657 34.167969h-22.992188c-14.589844-.019531-27.324219-9.882812-30.992188-24h22.992188c14.585938.019531 27.324219 9.882812 30.992188 24zm0-64c-3.667969 14.117188-16.40625 23.980469-30.992188 24h-22.992188c3.667969-14.117188 16.402344-23.980469 30.992188-24zm-30.992188-175.800781v8.066406c0 15-2.089844 29.929687-6.207031 44.359375l-4 14.128906c-.515625-.578125-.914063-1.234375-1.464844-1.785156l-45.304687-45.25c-1.445313-1.382812-2.992188-2.65625-4.625-3.808594 19.296874-9.242187 40.234374-14.582031 61.601562-15.710937zm-85.257812 23.800781c6.363281.015625 12.460937 2.542969 16.96875 7.03125l45.265624 45.25c4.511719 4.492188 7.039063 10.605469 7.023438 16.976562v28.34375c-12.15625-15.527343-30.585938-24.84375-50.296875-25.433593 1.492187-2.464844 2.289063-5.289063 2.296875-8.167969.050781-7.410156-4.992188-13.886719-12.191406-15.648438-7.195313-1.765624-14.660156 1.640626-18.042969 8.234376s-1.796875 14.644531 3.832031 19.460937c-7.304687 2.71875-14.074218 6.699219-20 11.761719-4.507812-4.960938-10.894531-7.792969-17.597656-7.808594h-16c-6.703125.015625-13.089844 2.847656-17.601562 7.808594-5.925782-5.0625-12.695313-9.042969-20-11.761719 6.449218-5.519531 7.464843-15.121094 2.308593-21.867187-5.15625-6.746094-14.683593-8.292969-21.707031-3.519532-7.023438 4.769532-9.09375 14.199219-4.722656 21.476563-19.707032.601562-38.128906 9.929687-50.277344 25.464843v-28.34375c-.019531-6.371093 2.511719-12.484374 7.023438-16.976562l45.265624-45.25c4.507813-4.488281 10.605469-7.015625 16.964844-7.03125zm-180.535157 28.625c-4.117187-14.429688-6.207031-29.359375-6.207031-44.359375v-8.066406c21.367188 1.128906 42.300781 6.46875 61.597656 15.710937-1.632812 1.152344-3.179687 2.425782-4.621094 3.808594l-45.265624 45.25c-.550782.550781-.953126 1.207031-1.464844 1.785156zm-94.0625 247.582031c-2-31.671875 19.460938-60.050781 50.488281-66.742187 3.972657 8.691406 4.230469 18.625.71875 27.511718-3.109374 8.621094-4.070312 17.875-2.800781 26.953126.871094 6.285156 2.847657 12.367187 5.832031 17.964843-3.785156 9.3125-5.761718 19.257813-5.824218 29.304688.027344 5.554687.625 11.089843 1.777344 16.519531l1.496093 7.152344c-28.460937-5.707032-49.609375-29.710938-51.6875-58.664063zm63.855469 123.792969h8c2.398438 0 4.671875-1.082031 6.191406-2.941406 1.519532-1.863282 2.121094-4.304688 1.640625-6.660156l-13.832031-65.933594c-.929688-4.363282-1.414062-8.804688-1.441406-13.265625.105468-30.703125 22.210937-56.917969 52.457031-62.207031l10.574219 175.007812h-94.582032c3.667969-14.117188 16.402344-23.980469 30.992188-24zm256.566406 24 10.570313-174.984375c16.878906 3.003906 31.820312 12.726563 41.40625 26.941406 9.585937 14.210938 13 31.707031 9.464843 48.484375l-13.839843 65.917969c-.496094 2.359375.101562 4.816406 1.621093 6.683594 1.519532 1.871093 3.800782 2.957031 6.210938 2.957031h8c14.617188-.0625 27.398438 9.832031 31 24zm0 0"/><path d="m176.03125 56h16v16h-16zm0 0"/><path d="m288.03125 56h16v16h-16zm0 0"/></svg>